<?xml version="1.0" encoding="iso-8859-1"?>
<!-- Generator: Adobe Illustrator 19.0.0, SVG Export Plug-In . SVG Version: 6.00 Build 0)  -->
<svg version="1.1" id="Layer_1" xmlns="http://www.w3.org/2000/svg" xmlns:xlink="http://www.w3.org/1999/xlink" x="0px" y="0px"
	 viewBox="0 0 426.667 426.667" style="enable-background:new 0 0 426.667 426.667;" xml:space="preserve">
<g>
	<g>
		<g>
			<path d="M249.387,76.544c-4.16-2.987-9.515-3.861-14.336-2.261l-106.667,34.773c-6.592,2.155-11.051,8.277-11.051,15.211V192
				c-17.664,0-32,14.336-32,32s14.336,32,32,32s32-14.336,32-32v-88.128L224,111.531v59.136c-17.664,0-32,14.336-32,32
				s14.336,32,32,32s32-14.336,32-32V89.493C256,84.373,253.547,79.531,249.387,76.544z"/>
			<path d="M384,106.667V384H106.667v42.667H384c23.531,0,42.667-19.136,42.667-42.667V106.667H384z"/>
			<path d="M341.333,298.667v-256C341.333,19.157,322.197,0,298.667,0h-256C19.136,0,0,19.157,0,42.667v256
				c0,23.531,19.136,42.667,42.667,42.667h256C322.197,341.333,341.333,322.197,341.333,298.667z M42.667,42.667h256l0.021,256
				H42.667V42.667z"/>
		</g>
	</g>
</g>
<g>
</g>
<g>
</g>
<g>
</g>
<g>
</g>
<g>
</g>
<g>
</g>
<g>
</g>
<g>
</g>
<g>
</g>
<g>
</g>
<g>
</g>
<g>
</g>
<g>
</g>
<g>
</g>
<g>
</g>
</svg>
