<svg xmlns="http://www.w3.org/2000/svg" viewBox="0 0 24 24"><path d="M23.421 16.583l-3.291-3.291a1 1 0 10-1.413 1.414L21.007 17a9.332 9.332 0 01-6.686-2.8.982.982 0 00-1.408.08l-.013.02a1 1 0 00.075 1.382A11.177 11.177 0 0021.01 19l-2.293 2.293A1 1 0 1020.13 22.7l3.291-3.291a2 2 0 000-2.826z"/><path d="M21.007 7l-2.29 2.29a.892.892 0 00-.054.082.992.992 0 001.467 1.332L21.836 9l1.586-1.585a2 2 0 00.457-2.1 1.969 1.969 0 00-.458-.728L20.13 1.3a1 1 0 10-1.413 1.413l2.293 2.292c-4.933.012-7.637 2.674-10.089 5.474C8.669 7.937 6 5.4 1.487 5.046L1.006 5a1 1 0 00-1 1 1.02 1.02 0 001 1c.072 0 .287.033.287.033C5.189 7.328 7.425 9.522 9.6 12c-2.162 2.466-4.383 4.7-8.247 4.96l-.4.021a.994.994 0 10.124 1.985c.156-.007.41-.013.535-.023 5.02-.387 7.743-3.6 10.171-6.409C14.235 9.7 16.551 7.018 21.007 7z"/></svg>