<?xml version="1.0" encoding="iso-8859-1"?>
<!-- Generator: Adobe Illustrator 19.0.0, SVG Export Plug-In . SVG Version: 6.00 Build 0)  -->
<svg version="1.1" id="Layer_1" xmlns="http://www.w3.org/2000/svg" xmlns:xlink="http://www.w3.org/1999/xlink" x="0px" y="0px"
	 viewBox="0 0 426.667 426.667" style="enable-background:new 0 0 426.667 426.667;" xml:space="preserve">
<g>
	<g>
		<g>
			<path d="M208.299,24.545c-15.765-6.528-34.453-2.795-46.464,9.259l-66.283,94.165H42.667C19.136,127.969,0,147.126,0,170.635
				v85.333c0,23.531,19.136,42.667,42.667,42.667h52.885l63.893,91.307c8.875,10.581,20.459,15.36,32.555,15.36
				c5.611,0,11.115-1.088,16.299-3.221c16.021-6.592,26.368-22.101,26.368-39.445V63.969
				C234.667,46.625,224.32,31.158,208.299,24.545z M117.781,255.969H42.667v-85.333h75.115L192,64.545l0.021,297.557
				L117.781,255.969z"/>
			<path d="M277.333,42.635v42.667C336.149,85.302,384,133.153,384,191.969c0,58.816-47.851,106.667-106.667,106.667v42.667
				c82.347,0,149.333-66.987,149.333-149.333C426.667,109.643,359.68,42.635,277.333,42.635z"/>
			<path d="M341.333,191.969c0-35.285-28.715-64-64-64v42.667c11.755,0,21.333,9.579,21.333,21.333
				c0,11.776-9.579,21.333-21.333,21.333v42.667C312.619,255.969,341.333,227.254,341.333,191.969z"/>
		</g>
	</g>
</g>
<g>
</g>
<g>
</g>
<g>
</g>
<g>
</g>
<g>
</g>
<g>
</g>
<g>
</g>
<g>
</g>
<g>
</g>
<g>
</g>
<g>
</g>
<g>
</g>
<g>
</g>
<g>
</g>
<g>
</g>
</svg>
