<?xml version="1.0" encoding="iso-8859-1"?>
<!-- Generator: Adobe Illustrator 19.0.0, SVG Export Plug-In . SVG Version: 6.00 Build 0)  -->
<svg version="1.1" id="Layer_1" xmlns="http://www.w3.org/2000/svg" xmlns:xlink="http://www.w3.org/1999/xlink" x="0px" y="0px"
	 viewBox="0 0 448 448" style="enable-background:new 0 0 448 448;" xml:space="preserve">
<g>
	<g>
		<g>
			<path d="M208.299,35.211c-15.765-6.528-34.453-2.795-46.464,9.259l-66.283,94.165H42.667C19.136,138.635,0,157.793,0,181.302
				v85.333c0,23.531,19.136,42.667,42.667,42.667h52.885l63.893,91.307c8.875,10.581,20.459,15.36,32.555,15.36
				c5.611,0,11.115-1.088,16.299-3.221c16.021-6.592,26.368-22.101,26.368-39.445V74.635
				C234.667,57.291,224.32,41.825,208.299,35.211z M117.781,266.635H42.667v-85.333h75.115L192,75.211l0.021,297.557
				L117.781,266.635z"/>
			<polygon points="384,202.635 384,138.635 341.333,138.635 341.333,202.635 277.333,202.635 277.333,245.302 341.333,245.302 
				341.333,309.302 384,309.302 384,245.302 448,245.302 448,202.635 			"/>
		</g>
	</g>
</g>
<g>
</g>
<g>
</g>
<g>
</g>
<g>
</g>
<g>
</g>
<g>
</g>
<g>
</g>
<g>
</g>
<g>
</g>
<g>
</g>
<g>
</g>
<g>
</g>
<g>
</g>
<g>
</g>
<g>
</g>
</svg>
