<?xml version="1.0" encoding="iso-8859-1"?>
<!-- Generator: Adobe Illustrator 19.0.0, SVG Export Plug-In . SVG Version: 6.00 Build 0)  -->
<svg version="1.1" id="Layer_1" xmlns="http://www.w3.org/2000/svg" xmlns:xlink="http://www.w3.org/1999/xlink" x="0px" y="0px"
	 viewBox="0 0 399.02 399.02" style="enable-background:new 0 0 399.02 399.02;" xml:space="preserve">
<g>
	<g>
		<g>
			<path d="M365.761,6.188L3.094,368.855l30.165,30.165l110.336-110.315l55.893,79.893c8.896,10.581,20.459,15.36,32.555,15.36
				c5.611,0,11.115-1.088,16.299-3.221c16.021-6.613,26.368-22.123,26.368-39.445V157.591L395.926,36.354L365.761,6.188z
				 M232.086,340.759l-57.835-82.709l57.835-57.835V340.759z"/>
			<path d="M82.71,228.887v-79.616h75.115L232.043,43.18v36.373l41.92-41.92c-1.792-15.232-11.179-28.501-25.621-34.453
				c-15.765-6.528-34.453-2.795-46.464,9.259l-66.283,94.165H82.71c-23.531,0-42.667,19.157-42.667,42.667v85.333
				c0,10.304,3.819,19.648,9.92,27.051L82.71,228.887z"/>
		</g>
	</g>
</g>
<g>
</g>
<g>
</g>
<g>
</g>
<g>
</g>
<g>
</g>
<g>
</g>
<g>
</g>
<g>
</g>
<g>
</g>
<g>
</g>
<g>
</g>
<g>
</g>
<g>
</g>
<g>
</g>
<g>
</g>
</svg>
